<?xml version="1.0" encoding="UTF-8"?>
<svg version="1.0" viewBox="0 0 127.9 124.02" xmlns="http://www.w3.org/2000/svg" xmlns:cc="http://creativecommons.org/ns#" xmlns:dc="http://purl.org/dc/elements/1.1/" xmlns:rdf="http://www.w3.org/1999/02/22-rdf-syntax-ns#">
<defs>
<filter id="c">
<feGaussianBlur stdDeviation="1.4592598"/>
</filter>
<filter id="b">
<feGaussianBlur stdDeviation="1.5409699"/>
</filter>
<radialGradient id="a" cx="553.37" cy="305.48" r="107.02" fx="611.34" fy="268.59" gradientTransform="matrix(1.0188 -.4369 .47398 1.1053 -255.73 296.24)" gradientUnits="userSpaceOnUse">
<stop stop-color="#fff" offset="0"/>
<stop stop-color="#ccc" offset="1"/>
</radialGradient>
</defs>
<g transform="translate(-351.08 -249.49)" fill-rule="evenodd">
<path transform="matrix(.58213 0 0 .58213 145.59 103.31)" d="m566.05 357.64a106.52 106.52 0 1 1-213.04 0 106.52 106.52 0 1 1 213.04 0z" color="#000000" fill="url(#a)"/>
<path transform="matrix(.58213 0 0 .58213 146.71 106.4)" d="m566.59 366.7c-39.72-132.8-171.39-103.82-210.5-42.57 29.156-50.77 97.059-69.935 151.57-42.778 35.257 17.565 56.399 48.179 58.941 85.345z" color="#000000" fill="#fff" filter="url(#b)" opacity=".5804" stroke="#f9f9f9" stroke-width="1.0146px"/>
<path transform="matrix(.58213 0 0 .58213 146.71 106.4)" d="m561.48 361.59c-38.18-121.7-164.74-95.14-202.34-39.01 28.025-46.524 93.291-64.085 145.68-39.2 33.889 16.096 54.21 44.149 56.653 78.206z" color="#000000" fill="#ccc" filter="url(#c)" opacity=".74"/>
</g>
<metadata>
<rdf:RDF>
<cc:Work>
<dc:format>image/svg+xml</dc:format>
<dc:type rdf:resource="http://purl.org/dc/dcmitype/StillImage"/>
<cc:license rdf:resource="http://creativecommons.org/licenses/publicdomain/"/>
<dc:publisher>
<cc:Agent rdf:about="http://openclipart.org/">
<dc:title>Openclipart</dc:title>
</cc:Agent>
</dc:publisher>
<dc:title>Ping Pong Ball</dc:title>
<dc:date>2008-04-13T01:36:57</dc:date>
<dc:description>A Ping Pong Ball - what else is there to say?</dc:description>
<dc:source>https://openclipart.org/detail/16384/ping-pong-ball-by-kattekrab</dc:source>
<dc:creator>
<cc:Agent>
<dc:title>kattekrab</dc:title>
</cc:Agent>
</dc:creator>
<dc:subject>
<rdf:Bag>
<rdf:li>ball</rdf:li>
<rdf:li>round</rdf:li>
<rdf:li>sphere</rdf:li>
</rdf:Bag>
</dc:subject>
</cc:Work>
<cc:License rdf:about="http://creativecommons.org/licenses/publicdomain/">
<cc:permits rdf:resource="http://creativecommons.org/ns#Reproduction"/>
<cc:permits rdf:resource="http://creativecommons.org/ns#Distribution"/>
<cc:permits rdf:resource="http://creativecommons.org/ns#DerivativeWorks"/>
</cc:License>
</rdf:RDF>
</metadata>
</svg>
